<svg width="275" height="56" viewBox="0 0 275 56" fill="none" xmlns="http://www.w3.org/2000/svg">
<path d="M41.0371 38.3651C41.0371 38.3651 49.5542 30.2348 52.4429 27.372C61.5854 18.7836 57.0291 1.09145 57.0291 1.09145C57.0291 1.09145 38.7142 -3.28864 29.7802 5.50017C22.8116 12.0274 18.285 16.5506 18.285 16.5506C18.285 16.5506 6.84944 14.2603 0 20.8448L36.4807 56C43.3302 49.3297 41.0371 38.3651 41.0371 38.3651ZM36.5701 12.5999C37.1232 12.0676 37.7801 11.6453 38.5032 11.3571C39.2262 11.069 40.0013 10.9207 40.784 10.9207C41.5667 10.9207 42.3417 11.069 43.0648 11.3571C43.7878 11.6453 44.4447 12.0676 44.9979 12.5999C45.8302 13.4009 46.3968 14.4211 46.626 15.5316C46.8553 16.6421 46.737 17.793 46.286 18.8388C45.835 19.8847 45.0716 20.7785 44.0923 21.4074C43.113 22.0362 41.9617 22.3719 40.784 22.3719C39.6063 22.3719 38.455 22.0362 37.4757 21.4074C36.4963 20.7785 35.7329 19.8847 35.2819 18.8388C34.8309 17.793 34.7126 16.6421 34.9419 15.5316C35.1712 14.4211 35.7378 13.4009 36.5701 12.5999ZM2.97802 53.1372C8.49054 52.986 13.7678 50.9568 17.8681 47.4116L8.93406 38.8232C2.97802 41.686 2.97802 53.1372 2.97802 53.1372Z" fill="#081B29"/>
<path d="M79.4153 49.6202H71.1757V10.1497H93.8144V17.0071H79.4153V27.1852H92.8148V34.0156H79.4153V49.6202Z" fill="#081B29"/>
<path d="M124.46 19.4369V49.6202H118.139L117.031 45.7596H116.599C115.951 46.7855 115.14 47.6224 114.168 48.2704C113.195 48.9183 112.124 49.3953 110.953 49.7012C109.782 50.0072 108.567 50.1602 107.306 50.1602C105.145 50.1602 103.263 49.7822 101.66 49.0263C100.057 48.2524 98.805 47.0555 97.9045 45.4356C97.022 43.8158 96.5808 41.7099 96.5808 39.1182V19.4369H104.82V37.0664C104.82 39.2262 105.208 40.855 105.982 41.9529C106.756 43.0508 107.99 43.5998 109.683 43.5998C111.358 43.5998 112.673 43.2218 113.627 42.4659C114.582 41.6919 115.248 40.567 115.626 39.0912C116.023 37.5973 116.221 35.7795 116.221 33.6377V19.4369H124.46Z" fill="#081B29"/>
<path d="M141.68 43.5998C142.58 43.5998 143.454 43.5098 144.3 43.3298C145.165 43.1498 146.02 42.9248 146.867 42.6549V48.7833C145.984 49.1793 144.886 49.5033 143.571 49.7552C142.274 50.0252 140.851 50.1602 139.303 50.1602C137.502 50.1602 135.881 49.8722 134.44 49.2963C133.017 48.7023 131.891 47.6854 131.063 46.2455C130.253 44.7877 129.847 42.7629 129.847 40.1711V25.6194H125.903V22.1367L130.442 19.3829L132.819 13.0115H138.087V19.4369H146.543V25.6194H138.087V40.1711C138.087 41.323 138.411 42.1869 139.059 42.7629C139.726 43.3208 140.599 43.5998 141.68 43.5998Z" fill="#081B29"/>
<path d="M176.567 19.4369V49.6202H170.246L169.138 45.7596H168.706C168.058 46.7855 167.247 47.6224 166.275 48.2704C165.302 48.9183 164.23 49.3953 163.06 49.7012C161.889 50.0072 160.673 50.1602 159.413 50.1602C157.252 50.1602 155.369 49.7822 153.767 49.0263C152.164 48.2524 150.912 47.0555 150.011 45.4356C149.129 43.8158 148.688 41.7099 148.688 39.1182V19.4369H156.927V37.0664C156.927 39.2262 157.315 40.855 158.089 41.9529C158.863 43.0508 160.097 43.5998 161.79 43.5998C163.465 43.5998 164.78 43.2218 165.734 42.4659C166.689 41.6919 167.355 40.567 167.733 39.0912C168.13 37.5973 168.328 35.7795 168.328 33.6377V19.4369H176.567Z" fill="#081B29"/>
<path d="M197.92 18.87C198.334 18.87 198.812 18.897 199.352 18.9509C199.91 18.9869 200.361 19.0409 200.703 19.1129L200.081 26.8343C199.811 26.7443 199.424 26.6813 198.92 26.6453C198.434 26.5913 198.01 26.5643 197.65 26.5643C196.587 26.5643 195.552 26.6993 194.543 26.9692C193.553 27.2392 192.661 27.6802 191.869 28.2921C191.076 28.8861 190.446 29.678 189.978 30.6679C189.527 31.6398 189.302 32.8367 189.302 34.2586V49.6202H181.063V19.4369H187.303L188.519 24.5125H188.924C189.518 23.4865 190.257 22.5506 191.139 21.7047C192.04 20.8408 193.057 20.1568 194.192 19.6529C195.345 19.1309 196.587 18.87 197.92 18.87Z" fill="#081B29"/>
<path d="M214.491 18.87C217.283 18.87 219.687 19.4099 221.704 20.4898C223.722 21.5517 225.279 23.0996 226.378 25.1334C227.477 27.1672 228.026 29.651 228.026 32.5847V36.5804H208.548C208.638 38.9022 209.331 40.729 210.628 42.0609C211.943 43.3748 213.762 44.0317 216.085 44.0317C218.012 44.0317 219.777 43.8338 221.38 43.4378C222.983 43.0418 224.631 42.4479 226.324 41.6559V48.0274C224.829 48.7653 223.262 49.3053 221.623 49.6472C220.002 49.9892 218.03 50.1602 215.707 50.1602C212.681 50.1602 209.998 49.6022 207.656 48.4863C205.333 47.3704 203.505 45.6696 202.172 43.3838C200.858 41.098 200.2 38.2183 200.2 34.7446C200.2 31.2169 200.795 28.2831 201.983 25.9433C203.19 23.5855 204.865 21.8217 207.008 20.6518C209.151 19.4639 211.646 18.87 214.491 18.87ZM214.545 24.7284C212.942 24.7284 211.61 25.2414 210.547 26.2673C209.503 27.2932 208.899 28.9041 208.737 31.0999H220.3C220.282 29.876 220.056 28.7871 219.624 27.8332C219.21 26.8792 218.58 26.1233 217.733 25.5654C216.905 25.0074 215.842 24.7284 214.545 24.7284Z" fill="#081B29"/>
<path d="M251.648 40.657C251.648 42.7089 251.162 44.4457 250.189 45.8676C249.235 47.2715 247.803 48.3424 245.894 49.0803C243.985 49.8002 241.607 50.1602 238.762 50.1602C236.655 50.1602 234.845 50.0252 233.332 49.7552C231.837 49.4853 230.324 49.0353 228.793 48.4054V41.602C230.432 42.3399 232.188 42.9518 234.061 43.4378C235.952 43.9058 237.609 44.1397 239.032 44.1397C240.635 44.1397 241.778 43.9058 242.463 43.4378C243.165 42.9518 243.516 42.3219 243.516 41.548C243.516 41.044 243.372 40.594 243.084 40.1981C242.814 39.7841 242.22 39.3252 241.301 38.8212C240.383 38.2992 238.942 37.6243 236.979 36.7964C235.088 36.0044 233.53 35.2035 232.305 34.3936C231.098 33.5837 230.198 32.6297 229.604 31.5318C229.027 30.4159 228.739 29.0031 228.739 27.2932C228.739 24.5035 229.82 22.4066 231.981 21.0028C234.16 19.5809 237.069 18.87 240.707 18.87C242.58 18.87 244.363 19.0589 246.056 19.4369C247.767 19.8149 249.523 20.4178 251.324 21.2457L248.838 27.1852C247.344 26.5373 245.93 26.0063 244.597 25.5924C243.282 25.1784 241.941 24.9714 240.572 24.9714C239.365 24.9714 238.456 25.1334 237.843 25.4574C237.231 25.7813 236.925 26.2763 236.925 26.9422C236.925 27.4282 237.078 27.8602 237.384 28.2381C237.708 28.6161 238.321 29.0391 239.221 29.507C240.14 29.957 241.481 30.5419 243.246 31.2619C244.957 31.9638 246.443 32.7017 247.704 33.4757C248.965 34.2316 249.937 35.1765 250.621 36.3104C251.306 37.4263 251.648 38.8752 251.648 40.657Z" fill="#081B29"/>
<path d="M275 40.657C275 42.7089 274.514 44.4457 273.541 45.8676C272.587 47.2715 271.155 48.3424 269.246 49.0803C267.337 49.8002 264.959 50.1602 262.114 50.1602C260.007 50.1602 258.197 50.0252 256.684 49.7552C255.189 49.4853 253.676 49.0353 252.145 48.4054V41.602C253.784 42.3399 255.54 42.9518 257.413 43.4378C259.304 43.9058 260.961 44.1397 262.384 44.1397C263.987 44.1397 265.13 43.9058 265.815 43.4378C266.517 42.9518 266.868 42.3219 266.868 41.548C266.868 41.044 266.724 40.594 266.436 40.1981C266.166 39.7841 265.572 39.3252 264.653 38.8212C263.735 38.2992 262.294 37.6243 260.331 36.7964C258.44 36.0044 256.882 35.2035 255.657 34.3936C254.45 33.5837 253.55 32.6297 252.956 31.5318C252.379 30.4159 252.091 29.0031 252.091 27.2932C252.091 24.5035 253.172 22.4066 255.333 21.0028C257.512 19.5809 260.421 18.87 264.059 18.87C265.932 18.87 267.715 19.0589 269.408 19.4369C271.119 19.8149 272.875 20.4178 274.676 21.2457L272.19 27.1852C270.696 26.5373 269.282 26.0063 267.949 25.5924C266.634 25.1784 265.293 24.9714 263.924 24.9714C262.717 24.9714 261.808 25.1334 261.195 25.4574C260.583 25.7813 260.277 26.2763 260.277 26.9422C260.277 27.4282 260.43 27.8602 260.736 28.2381C261.06 28.6161 261.672 29.0391 262.573 29.507C263.492 29.957 264.833 30.5419 266.598 31.2619C268.309 31.9638 269.795 32.7017 271.056 33.4757C272.316 34.2316 273.289 35.1765 273.973 36.3104C274.658 37.4263 275 38.8752 275 40.657Z" fill="#081B29"/>
</svg>
