<svg width="275" height="57" viewBox="0 0 275 57" fill="none" xmlns="http://www.w3.org/2000/svg">
<path d="M41.0371 38.776C41.0371 38.776 49.5542 30.6457 52.4429 27.7829C61.5854 19.1945 57.0291 1.50234 57.0291 1.50234C57.0291 1.50234 38.7142 -2.87775 29.7802 5.91106C22.8116 12.4382 18.285 16.9615 18.285 16.9615C18.285 16.9615 6.84944 14.6712 0 21.2557L36.4807 56.4109C43.3302 49.7406 41.0371 38.776 41.0371 38.776ZM36.5701 13.0108C37.1232 12.4785 37.7801 12.0561 38.5032 11.768C39.2262 11.4799 40.0013 11.3316 40.784 11.3316C41.5667 11.3316 42.3417 11.4799 43.0648 11.768C43.7878 12.0561 44.4447 12.4785 44.9979 13.0108C45.8302 13.8118 46.3968 14.832 46.626 15.9425C46.8553 17.053 46.737 18.2039 46.286 19.2497C45.835 20.2956 45.0716 21.1894 44.0923 21.8183C43.113 22.4471 41.9617 22.7828 40.784 22.7828C39.6063 22.7828 38.455 22.4471 37.4757 21.8183C36.4963 21.1894 35.7329 20.2956 35.2819 19.2497C34.8309 18.2039 34.7126 17.053 34.9419 15.9425C35.1712 14.832 35.7378 13.8118 36.5701 13.0108ZM2.97802 53.5481C8.49054 53.3969 13.7678 51.3676 17.8681 47.8225L8.93406 39.2341C2.97802 42.0969 2.97802 53.5481 2.97802 53.5481Z" fill="white"/>
<path d="M79.4153 50.0311H71.1757V10.5606H93.8144V17.418H79.4153V27.5961H92.8148V34.4265H79.4153V50.0311Z" fill="white"/>
<path d="M124.46 19.8478V50.0311H118.139L117.031 46.1705H116.599C115.951 47.1964 115.14 48.0333 114.168 48.6813C113.195 49.3292 112.124 49.8062 110.953 50.1121C109.782 50.4181 108.567 50.5711 107.306 50.5711C105.145 50.5711 103.263 50.1931 101.66 49.4372C100.057 48.6633 98.805 47.4664 97.9045 45.8465C97.022 44.2266 96.5808 42.1208 96.5808 39.5291V19.8478H104.82V37.4772C104.82 39.6371 105.208 41.2659 105.982 42.3638C106.756 43.4617 107.99 44.0107 109.683 44.0107C111.358 44.0107 112.673 43.6327 113.627 42.8768C114.582 42.1028 115.248 40.9779 115.626 39.5021C116.023 38.0082 116.221 36.1904 116.221 34.0485V19.8478H124.46Z" fill="white"/>
<path d="M141.68 44.0107C142.58 44.0107 143.454 43.9207 144.3 43.7407C145.165 43.5607 146.02 43.3357 146.867 43.0658V49.1942C145.984 49.5902 144.886 49.9142 143.571 50.1661C142.274 50.4361 140.851 50.5711 139.303 50.5711C137.502 50.5711 135.881 50.2831 134.44 49.7072C133.017 49.1132 131.891 48.0963 131.063 46.6564C130.253 45.1986 129.847 43.1737 129.847 40.582V26.0302H125.903V22.5476L130.442 19.7938L132.819 13.4224H138.087V19.8478H146.543V26.0302H138.087V40.582C138.087 41.7339 138.411 42.5978 139.059 43.1737C139.726 43.7317 140.599 44.0107 141.68 44.0107Z" fill="white"/>
<path d="M176.567 19.8478V50.0311H170.246L169.138 46.1705H168.706C168.058 47.1964 167.247 48.0333 166.275 48.6813C165.302 49.3292 164.23 49.8062 163.06 50.1121C161.889 50.4181 160.673 50.5711 159.413 50.5711C157.252 50.5711 155.369 50.1931 153.767 49.4372C152.164 48.6633 150.912 47.4664 150.011 45.8465C149.129 44.2266 148.688 42.1208 148.688 39.5291V19.8478H156.927V37.4772C156.927 39.6371 157.315 41.2659 158.089 42.3638C158.863 43.4617 160.097 44.0107 161.79 44.0107C163.465 44.0107 164.78 43.6327 165.734 42.8768C166.689 42.1028 167.355 40.9779 167.733 39.5021C168.13 38.0082 168.328 36.1904 168.328 34.0485V19.8478H176.567Z" fill="white"/>
<path d="M197.92 19.2808C198.334 19.2808 198.812 19.3078 199.352 19.3618C199.91 19.3978 200.361 19.4518 200.703 19.5238L200.081 27.2451C199.811 27.1551 199.424 27.0922 198.92 27.0562C198.434 27.0022 198.01 26.9752 197.65 26.9752C196.587 26.9752 195.552 27.1102 194.543 27.3801C193.553 27.6501 192.661 28.0911 191.869 28.703C191.076 29.297 190.446 30.0889 189.978 31.0788C189.527 32.0507 189.302 33.2476 189.302 34.6695V50.0311H181.063V19.8478H187.303L188.519 24.9233H188.924C189.518 23.8974 190.257 22.9615 191.139 22.1156C192.04 21.2517 193.057 20.5677 194.192 20.0638C195.345 19.5418 196.587 19.2808 197.92 19.2808Z" fill="white"/>
<path d="M214.491 19.2808C217.283 19.2808 219.687 19.8208 221.704 20.9007C223.722 21.9626 225.279 23.5105 226.378 25.5443C227.477 27.5781 228.026 30.0619 228.026 32.9956V36.9913H208.548C208.638 39.3131 209.331 41.1399 210.628 42.4718C211.943 43.7857 213.762 44.4426 216.085 44.4426C218.012 44.4426 219.777 44.2446 221.38 43.8487C222.983 43.4527 224.631 42.8588 226.324 42.0668V48.4383C224.829 49.1762 223.262 49.7162 221.623 50.0581C220.002 50.4001 218.03 50.5711 215.707 50.5711C212.681 50.5711 209.998 50.0131 207.656 48.8972C205.333 47.7813 203.505 46.0805 202.172 43.7947C200.858 41.5089 200.2 38.6291 200.2 35.1554C200.2 31.6278 200.795 28.694 201.983 26.3542C203.19 23.9964 204.865 22.2326 207.008 21.0627C209.151 19.8748 211.646 19.2808 214.491 19.2808ZM214.545 25.1393C212.942 25.1393 211.61 25.6523 210.547 26.6782C209.503 27.7041 208.899 29.315 208.737 31.5108H220.3C220.282 30.2869 220.056 29.198 219.624 28.2441C219.21 27.2901 218.58 26.5342 217.733 25.9763C216.905 25.4183 215.842 25.1393 214.545 25.1393Z" fill="white"/>
<path d="M251.648 41.0679C251.648 43.1197 251.162 44.8566 250.189 46.2785C249.235 47.6823 247.803 48.7533 245.894 49.4912C243.985 50.2111 241.607 50.5711 238.762 50.5711C236.655 50.5711 234.845 50.4361 233.332 50.1661C231.837 49.8961 230.324 49.4462 228.793 48.8162V42.0128C230.432 42.7508 232.188 43.3627 234.061 43.8487C235.952 44.3166 237.609 44.5506 239.032 44.5506C240.635 44.5506 241.778 44.3166 242.463 43.8487C243.165 43.3627 243.516 42.7328 243.516 41.9588C243.516 41.4549 243.372 41.0049 243.084 40.609C242.814 40.195 242.22 39.736 241.301 39.2321C240.383 38.7101 238.942 38.0352 236.979 37.2073C235.088 36.4153 233.53 35.6144 232.305 34.8045C231.098 33.9945 230.198 33.0406 229.604 31.9427C229.027 30.8268 228.739 29.414 228.739 27.7041C228.739 24.9143 229.82 22.8175 231.981 21.4137C234.16 19.9918 237.069 19.2808 240.707 19.2808C242.58 19.2808 244.363 19.4698 246.056 19.8478C247.767 20.2258 249.523 20.8287 251.324 21.6566L248.838 27.5961C247.344 26.9482 245.93 26.4172 244.597 26.0033C243.282 25.5893 241.941 25.3823 240.572 25.3823C239.365 25.3823 238.456 25.5443 237.843 25.8683C237.231 26.1922 236.925 26.6872 236.925 27.3531C236.925 27.8391 237.078 28.2711 237.384 28.649C237.708 29.027 238.321 29.4499 239.221 29.9179C240.14 30.3679 241.481 30.9528 243.246 31.6728C244.957 32.3747 246.443 33.1126 247.704 33.8866C248.965 34.6425 249.937 35.5874 250.621 36.7213C251.306 37.8372 251.648 39.2861 251.648 41.0679Z" fill="white"/>
<path d="M275 41.0679C275 43.1197 274.514 44.8566 273.541 46.2785C272.587 47.6823 271.155 48.7533 269.246 49.4912C267.337 50.2111 264.959 50.5711 262.114 50.5711C260.007 50.5711 258.197 50.4361 256.684 50.1661C255.189 49.8961 253.676 49.4462 252.145 48.8162V42.0128C253.784 42.7508 255.54 43.3627 257.413 43.8487C259.304 44.3166 260.961 44.5506 262.384 44.5506C263.987 44.5506 265.13 44.3166 265.815 43.8487C266.517 43.3627 266.868 42.7328 266.868 41.9588C266.868 41.4549 266.724 41.0049 266.436 40.609C266.166 40.195 265.572 39.736 264.653 39.2321C263.735 38.7101 262.294 38.0352 260.331 37.2073C258.44 36.4153 256.882 35.6144 255.657 34.8045C254.45 33.9945 253.55 33.0406 252.956 31.9427C252.379 30.8268 252.091 29.414 252.091 27.7041C252.091 24.9143 253.172 22.8175 255.333 21.4137C257.512 19.9918 260.421 19.2808 264.059 19.2808C265.932 19.2808 267.715 19.4698 269.408 19.8478C271.119 20.2258 272.875 20.8287 274.676 21.6566L272.19 27.5961C270.696 26.9482 269.282 26.4172 267.949 26.0033C266.634 25.5893 265.293 25.3823 263.924 25.3823C262.717 25.3823 261.808 25.5443 261.195 25.8683C260.583 26.1922 260.277 26.6872 260.277 27.3531C260.277 27.8391 260.43 28.2711 260.736 28.649C261.06 29.027 261.672 29.4499 262.573 29.9179C263.492 30.3679 264.833 30.9528 266.598 31.6728C268.309 32.3747 269.795 33.1126 271.056 33.8866C272.316 34.6425 273.289 35.5874 273.973 36.7213C274.658 37.8372 275 39.2861 275 41.0679Z" fill="white"/>
</svg>
